<svg xmlns="http://www.w3.org/2000/svg" viewBox="0 0 20 20">
    <path d="M390.08,799.68V782h3.59v.06a2.89,2.89,0,0,0,1.57,2,2.8,2.8,0,0,0,1.07.3,2.09,2.09,0,0,0,.56,0,.15.15,0,0,1,.13,0l2.6,2.61,0,0,2.49-2.49s0,0,0,0h0l-2.45-2.45,0,0h10.42V793.8H404.2v5.81H390.08Zm3.54-9.42h12.93V789.1H393.62Zm0,3.53h8.23v-1.16h-8.23Z" transform="translate(-390.08 -779.68)"  fill="#fcd34d"/>
    <path d="M396.64,779.68l.17,0a1.77,1.77,0,0,1,1.37,2.44l0,.06,2.35,2.34-.84.84L397.32,783l-.33.12a1.77,1.77,0,1,1-.79-3.44l.23,0h.21Z" transform="translate(-390.08 -779.68)" style="fill: #155e75"/>
    <path d="M405.38,799.59V795H410Z" transform="translate(-390.08 -779.68)" fill="#14b8a6"/>
</svg>
